<svg id="Layer_1" data-name="Layer 1" xmlns="http://www.w3.org/2000/svg" xmlns:xlink="http://www.w3.org/1999/xlink" viewBox="0 0 400 300" width="406" height="306" class="illustration styles_illustrationTablet__1DWOa"><defs><linearGradient id="linear-gradient" x1="214.53" y1="238.71" x2="258.35" y2="211.42" gradientUnits="userSpaceOnUse"><stop offset="0" stop-color="#0071bc" stop-opacity="0"></stop><stop offset="0.99" stop-color="#2e3192"></stop></linearGradient><linearGradient id="linear-gradient-2" x1="89.27" y1="239.05" x2="153.01" y2="199.35" xlink:href="#linear-gradient"></linearGradient></defs><title>91-100</title><path d="M70.8,236.57c19,11.45,65.76,38.55,87.55,51.16a22.91,22.91,0,0,0,23-.05l151-88.21a5.87,5.87,0,0,0,0-10.13l-94.61-55.5a5.87,5.87,0,0,0-5.9,0l-161,92.65A5.87,5.87,0,0,0,70.8,236.57Z" fill="#b4cdec"></path><path d="M225,247c15.31-9.17,42.87-25.21,46.55-28.52l-.88-3.24L250,203l-50.35,29.26C206.77,238.27,217.26,241.77,225,247Z" opacity="0.41" fill="url(#linear-gradient)"></path><path d="M100.23,251.26c22.27-13.34,66.68-36.68,72-41.49L171,205.06l-30.08-17.85L67.66,229.79C78,238.52,89,243.62,100.23,251.26Z" opacity="0.41" fill="url(#linear-gradient-2)"></path><polygon points="134.07 67.65 120.33 208.2 176.44 173.82 134.07 67.65" fill="#06577a"></polygon><polygon points="240.65 171.75 238.69 7.25 134.07 67.65 141.16 227.06 240.65 171.75" fill="#68e1fd"></polygon><path d="M109.45,191.68c-12.3,0-22.28,3.26-22.28,7.28h44.56C131.73,194.94,121.76,191.68,109.45,191.68Z" fill="#06489e"></path><path d="M87.25,199.53l-.07-.56A2.47,2.47,0,0,0,87.25,199.53Z" fill="#06489e"></path><path d="M131.73,199l-.09.64A2.48,2.48,0,0,0,131.73,199Z" fill="#06489e"></path><path d="M109.45,206.25c11.65,0,21.2-2.92,22.19-6.65l.09-.64H87.17l.07.56C88.13,203.29,97.73,206.25,109.45,206.25Z" fill="#06489e"></path><rect x="112.96" y="161.36" width="5.01" height="51.71" fill="#25b000"></rect><ellipse cx="115.46" cy="161.36" rx="2.51" ry="1.06" fill="#25b000"></ellipse><rect x="118.97" y="170.2" width="5.01" height="51.71" transform="translate(41.68 -20.34) rotate(11.54)" fill="#ff8f02"></rect><ellipse cx="126.65" cy="170.72" rx="1.06" ry="2.51" transform="translate(-65.96 260.65) rotate(-78.46)" fill="#ff8f02"></ellipse><path d="M103.4,200.1l-4.58,2.62a.41.41,0,0,1-.4-.7l4.68-2.68a.41.41,0,0,1,.14-.05l-.92-5L97.73,197a.41.41,0,0,1-.4-.7l4.68-2.68a.41.41,0,0,1,.17-.05l-.85-4.58-4.53,2.59a.41.41,0,0,1-.4-.7l4.68-2.68.09,0-.95-5.1-4.51,2.58a.41.41,0,0,1-.4-.7l4.68-2.68.07,0-.93-5-4.58,2.62a.41.41,0,0,1-.4-.7l4.68-2.68a.41.41,0,0,1,.14-.05L98.2,172l-4.58,2.62a.41.41,0,0,1-.4-.7l4.68-2.68a.41.41,0,0,1,.15-.05l-.8-4.32-4.57,2.61a.41.41,0,0,1-.4-.7L97,166.15a.41.41,0,0,1,.14,0l-.88-4.76-4.53,2.59a.41.41,0,0,1-.4-.7L96,160.55l.09,0-.41-2.21-9.94,6.16s7.06,39.31,7.21,39.39c4.12,2.15,11.62,2.4,11.62,2.4Z" fill="#ffaf68"></path><path d="M91.28,163.22a.41.41,0,0,0,.4.7l4.53-2.59-.15-.83-.09,0Z" fill="#ca4300"></path><path d="M92.27,168.82a.41.41,0,0,0,.4.7l4.57-2.61-.15-.82a.41.41,0,0,0-.14,0Z" fill="#ca4300"></path><path d="M93.21,174a.41.41,0,0,0,.4.7L98.2,172l-.15-.81a.41.41,0,0,0-.15.05Z" fill="#ca4300"></path><path d="M94.17,179.1a.41.41,0,0,0,.4.7l4.58-2.62-.15-.81a.41.41,0,0,0-.14.05Z" fill="#ca4300"></path><path d="M95.32,184.89a.41.41,0,0,0,.4.7l4.51-2.58-.16-.84-.07,0Z" fill="#ca4300"></path><path d="M96.4,190.83a.41.41,0,0,0,.4.7l4.53-2.59-.15-.83-.09,0Z" fill="#ca4300"></path><path d="M102,193.59l-4.68,2.68a.41.41,0,0,0,.4.7l4.6-2.63-.15-.8A.41.41,0,0,0,102,193.59Z" fill="#ca4300"></path><path d="M98.42,202a.41.41,0,0,0,.4.7l4.58-2.62-.15-.81a.41.41,0,0,0-.14.05Z" fill="#ca4300"></path><path d="M124.19,170.22s.25,1.31,2.24,1.54,2.67-.54,2.67-.54l-.65-9.87Z" fill="#ffd8bd"></path><path d="M128.46,161.36l-2,4.12a1.8,1.8,0,0,0,2.27.32Z" fill="#653200"></path><path d="M113,161.06s.46,1.26,2.46,1.17,2.55-1,2.55-1l-2.2-9.64Z" fill="#ffd8bd"></path><path d="M115.77,151.63,114.46,156a1.8,1.8,0,0,0,2.29,0Z" fill="#653200"></path><path d="M109.45,206.25c-11.72,0-21.33-3-22.21-6.72.58,4.5,4.59,35.41,4.74,35.59,0,0,2,8.72,17.47,8.71,13.13,0,16.87-6.59,16.87-6.59l5.32-37.63C130.65,203.32,121.1,206.25,109.45,206.25Z" fill="#68e1fd"></path><ellipse cx="201.7" cy="105.98" rx="3.97" ry="3.09" transform="translate(59.38 283.92) rotate(-79.06)" fill="#fff"></ellipse><path d="M208.78,102.15,225.36,93c1.41-.78.15-2.94-1.26-2.16L207.52,100c-1.41.78-.15,2.94,1.26,2.16Z" fill="#f2f2f2"></path><path d="M209.84,105.54l10.52-5.65c1.42-.76.16-2.92-1.26-2.16l-10.52,5.65c-1.42.76-.16,2.92,1.26,2.16Z" fill="#f2f2f2"></path><path d="M200,106l.89-1.07a12.24,12.24,0,0,0,1.21,1.66c0-.15,2.52-5.74,2.52-5.74l.95,1.08-3.17,6.64Z" fill="#4eb300"></path><path d="M199.5,42.62c6-3.42,21.53-12.38,28.13-16.18a2,2,0,0,1,3,1.75v49a4.31,4.31,0,0,1-2.1,3.7l-28.42,17a2,2,0,0,1-3.06-1.73c0-10.32,0-40.07,0-49.36A4.78,4.78,0,0,1,199.5,42.62Z" fill="#fff"></path><path d="M151.89,71.3c.36-.12,33.58-19.29,33.58-19.29v54.92L151.89,127Z" fill="#fff"></path><path d="M197.08,121.11c.36-.12,33.58-19.29,33.58-19.29v54.92l-33.58,20.09Z" fill="#fff"></path><path d="M151.89,147.28c.36-.12,33.58-19.29,33.58-19.29v54.92L151.89,203Z" fill="#fff"></path><path d="M219.61,42.22c-6-2.09-13.24,2.86-16.07,11.06-2.42,7-.86,14.09,3.4,17.31.61-2.7,2.23-6.85,6.5-9a9.22,9.22,0,0,1,11,1.62,21.2,21.2,0,0,0,1-2.33C228.26,52.65,225.65,44.31,219.61,42.22Z" fill="#fc9c54"></path><ellipse cx="215.23" cy="54.9" rx="7.18" ry="5.29" transform="translate(93.07 240.4) rotate(-70.94)" fill="#fcee21"></ellipse><path d="M213.43,61.55c-4.27,2.19-5.88,6.35-6.5,9a8.71,8.71,0,0,0,2.41,1.31c5.45,1.88,11.82-2,15.1-8.74A9.22,9.22,0,0,0,213.43,61.55Z" fill="#fcee21"></path><path d="M173.8,68.13c-6-2.09-13.24,2.86-16.07,11.06-2.42,7-.86,14.09,3.4,17.31.61-2.7,2.23-6.85,6.5-9a9.22,9.22,0,0,1,11,1.62,21.2,21.2,0,0,0,1-2.33C182.45,78.55,179.85,70.21,173.8,68.13Z" fill="#fc9c54"></path><ellipse cx="169.42" cy="80.8" rx="7.18" ry="5.29" transform="translate(37.73 214.56) rotate(-70.94)" fill="#fcee21"></ellipse><path d="M167.63,87.45c-4.27,2.19-5.88,6.35-6.5,9a8.71,8.71,0,0,0,2.41,1.31c5.45,1.88,11.82-2,15.1-8.74A9.22,9.22,0,0,0,167.63,87.45Z" fill="#fcee21"></path><path d="M173.8,143.35c-6-2.09-13.24,2.86-16.07,11.06-2.42,7-.86,14.09,3.4,17.31.61-2.7,2.23-6.85,6.5-9a9.22,9.22,0,0,1,11,1.62,21.2,21.2,0,0,0,1-2.33C182.45,153.77,179.85,145.44,173.8,143.35Z" fill="#fc9c54"></path><ellipse cx="169.42" cy="156.02" rx="7.18" ry="5.29" transform="translate(-33.37 265.22) rotate(-70.94)" fill="#fcee21"></ellipse><path d="M167.63,162.68c-4.27,2.19-5.88,6.35-6.5,9a8.71,8.71,0,0,0,2.41,1.31c5.45,1.88,11.82-2,15.1-8.74A9.22,9.22,0,0,0,167.63,162.68Z" fill="#fcee21"></path><path d="M220.35,115.44c-6-2.09-13.24,2.86-16.07,11.06-2.42,7-.86,14.09,3.4,17.31.61-2.7,2.23-6.85,6.5-9a9.22,9.22,0,0,1,11,1.62,21.2,21.2,0,0,0,1-2.33C229,125.86,226.4,117.53,220.35,115.44Z" fill="#fc9c54"></path><ellipse cx="215.98" cy="128.11" rx="7.18" ry="5.29" transform="translate(24.37 290.42) rotate(-70.94)" fill="#fcee21"></ellipse><path d="M214.18,134.77c-4.27,2.19-5.88,6.35-6.5,9a8.71,8.71,0,0,0,2.41,1.31c5.45,1.88,11.82-2,15.1-8.74A9.22,9.22,0,0,0,214.18,134.77Z" fill="#fcee21"></path><path d="M241.85,90.73l-4.39-3.29a.88.88,0,0,0-.41-.7q-6.29-4.38-12.56-8.8a1,1,0,0,0-1.58.55c-.44.76.12,1.55.83,2.14s1.59,1.31,2.39,2a1,1,0,0,0-.26.28c-.64,1-1.71,2.42-1.72,3.67s1,1.87,1.78,2.55l0,.18c-.16,1.54.52,2,1.74,2.73a1,1,0,0,0,.81.14,17.12,17.12,0,0,0,2.67,1.42l3.7,1.88c.94.48,1.62-.65,1.24-1.41.74.06,1.05-.75.86-1.38a.85.85,0,0,0,.21-.33l0-.05,1.28,1c1,.81,2.26-.8,1.23-1.61l-.91-.72,1.87,1.4A1,1,0,0,0,241.85,90.73Z" fill="#f04900"></path><path d="M270.93,219.32l1.58-1,0-17.79-7.81-.28s-.15,7.59-2,9.32-6.41.49-6.86.64-3.52-.74-4.9.68,4.68,5.52,7.9,6.27a20.8,20.8,0,0,0,6.7.25s.7-4.55,1.82-4.1,1.2,5.26,1.2,5.26Z" fill="#006ba4"></path><path d="M276.81,125.14a126.26,126.26,0,0,1,1.94,18.49c.13,7-2.34,62.94-2.34,62.94s-4.64,5.44-15.94,2.16c-1.64-.47-2.16-54.59-2.16-54.59l3.86-24.84" fill="#fc9c54"></path><path d="M271.61,96.88c-.62,0-21.41-.54-35.46-13.13,0,0-6.73,6.6-4,11.65,0,0,19.92,19.19,35.11,15.26" fill="#006ba4"></path><path d="M255.14,90.95a.31.31,0,0,0-.52,0,13.72,13.72,0,0,0-2,10.29c.08.38.66.22.59-.16a13.09,13.09,0,0,1,1.67-9.37,21.64,21.64,0,0,1,2.56,10.4.3.3,0,0,0,.61,0A22.29,22.29,0,0,0,255.14,90.95Z" fill="#42a200"></path><path d="M249.53,233l1.58-1,0-17.79-7.81-.28s-.15,7.59-2,9.32-6.41.49-6.86.64-3.52-.74-4.9.68,4.68,5.52,7.9,6.27a20.8,20.8,0,0,0,6.7.25s.7-4.55,1.82-4.1,1.2,5.26,1.2,5.26Z" fill="#006ba4"></path><path d="M252.33,127.73s-7.2,26.58-10.13,50.37c-.7,5.71-6.61,39.77-6.61,39.77s9.74,3.56,18.4.77c0,0,10.3-43.46,10.74-44.31s7.39-29,8.19-49.2" fill="#fc9c54"></path><path d="M274.35,93.91l-4.11-1.55c-1.05.07-10.4,3.13-14.65,9.32a40.52,40.52,0,0,0-1.36,5.93c-.54,2.67-1,5.35-1.34,8a59.2,59.2,0,0,0-.5,8.86c0,1.27.07,1.91.2,3.17a5.61,5.61,0,0,0,1.58,1.12c12.28,5.28,22-1.13,22.49-2.12s2.11-15.47,3-24.09A8.34,8.34,0,0,0,274.35,93.91Z" fill="#006ba4"></path><path d="M264.31,78.14s-3.86,14,1.27,15.93S277.31,90.5,278,87.61,272,73.93,264.31,78.14Z" fill="#f04900"></path><path d="M289.65,74a6.52,6.52,0,0,0-7.76-3.44c-2.83.92-4.54,3.35-5.37,6.06-2.55-2.23-6.35-3.36-11.17-1.88,0,0-4.73,2-3.87,5s4.45,3,7.46,3.59.57,3.23.72,6.2,1.49,3.46,2.74,3.72,6.93-1,7.73-7.67a8.89,8.89,0,0,0,.06-1.23,15.92,15.92,0,0,0,2.35.07,8.73,8.73,0,0,0,5-1.38A7.58,7.58,0,0,0,289.65,74Z" fill="#fc9c54"></path><path d="M259.38,93.48a2.67,2.67,0,0,0,.47-1.9,1,1,0,0,0-1.82-.42l-.44.6c-.07-.77-.15-1.54-.26-2.31a1,1,0,0,0-2,.07c0,.24-.06.49-.08.73a4,4,0,0,0-.17.79c-1.09.14-2.39.54-2.58,1.79,0,0,0,.06,0,.08-.84,0-1.66.33-1.69,1.33a3.68,3.68,0,0,0,0,.57c-.85.25-1.47.68-1.35,1.79a16.34,16.34,0,0,0,1,3.77,1,1,0,0,0,.76.57c.12.54.26,1.07.41,1.6a1.5,1.5,0,0,0,2.52.28,1.18,1.18,0,0,0,.3-.06,1,1,0,0,0,.83.14,1,1,0,0,0,1.51-.45,1,1,0,0,0,.33-.84c0-.23,0-.46,0-.68v0Q258.32,97.22,259.38,93.48Z" fill="#f04900"></path><path d="M257.66,98.67c-.32.08-4.82-4.05-8.23-2.63,0,0-13,21.92-.87,27.72,6,2.88,10.67-6,10.67-6L255.78,111Z" fill="#006ba4"></path><path d="M256.59,99.56a43.8,43.8,0,0,0-5.78,15.16c-.11.63.85.9,1,.27a43,43,0,0,1,5.68-14.92C257.79,99.51,256.93,99,256.59,99.56Z" fill="#653200"></path><path d="M259,118.6c-1,1.95-2.28,4-4.28,5a6.56,6.56,0,0,1-7.23-1.12c-4.26-3.67-3.62-10-2.77-14.93.11-.63-.85-.9-1-.27-1,5.54-1.51,12.74,3.72,16.45a7.52,7.52,0,0,0,7.09,1c2.5-1,4.09-3.38,5.29-5.69C260.16,118.54,259.3,118,259,118.6Z" fill="#653200"></path><path d="M269.9,144.69c-.64,12.71-4.39,24.89-7.57,37.13s-5.89,24.43-8.21,36.78l1.08-.3q3.53-18.71,8.34-37.15c3.15-12,6.73-24,7.36-36.46C270.93,144,269.93,144,269.9,144.69Z" fill="#653200"></path><ellipse cx="155.57" cy="134.44" rx="3.97" ry="3.09" transform="translate(-5.94 261.69) rotate(-79.06)" fill="#fff"></ellipse><path d="M162.65,130.61l16.59-9.14c1.41-.78.15-2.94-1.26-2.16l-16.59,9.14c-1.41.78-.15,2.94,1.26,2.16Z" fill="#f2f2f2"></path><path d="M163.71,134l10.52-5.65c1.42-.76.16-2.92-1.26-2.16l-10.52,5.65c-1.42.76-.16,2.92,1.26,2.16Z" fill="#f2f2f2"></path><path d="M153.83,134.43l.89-1.07a12.24,12.24,0,0,0,1.21,1.66c0-.15,2.52-5.74,2.52-5.74l.95,1.08L156.23,137Z" fill="#4eb300"></path><ellipse cx="160.75" cy="205.73" rx="3.97" ry="3.09" transform="translate(-71.74 324.53) rotate(-79.06)" fill="#fff"></ellipse><path d="M167.82,201.9l16.59-9.14c1.41-.78.15-2.94-1.26-2.16l-16.59,9.14c-1.41.78-.15,2.94,1.26,2.16Z" fill="#f2f2f2"></path><path d="M168.88,205.29l10.52-5.65c1.42-.76.16-2.92-1.26-2.16l-10.52,5.65c-1.42.76-.16,2.92,1.26,2.16Z" fill="#f2f2f2"></path><path d="M159,205.71l.89-1.07a12.24,12.24,0,0,0,1.21,1.66c0-.15,2.52-5.74,2.52-5.74l.95,1.08-3.17,6.64Z" fill="#4eb300"></path><ellipse cx="203.12" cy="181.88" rx="3.97" ry="3.09" transform="translate(-13.99 346.81) rotate(-79.06)" fill="#fff"></ellipse><path d="M210.2,178l16.59-9.14c1.41-.78.15-2.94-1.26-2.16l-16.59,9.14c-1.41.78-.15,2.94,1.26,2.16Z" fill="#f2f2f2"></path><path d="M211.26,181.44l10.52-5.65c1.42-.76.16-2.92-1.26-2.16L210,179.28c-1.42.76-.16,2.92,1.26,2.16Z" fill="#f2f2f2"></path><path d="M201.38,181.87l.89-1.07a12.24,12.24,0,0,0,1.21,1.66c0-.15,2.52-5.74,2.52-5.74l.95,1.08-3.17,6.64Z" fill="#4eb300"></path></svg>